<mxfile host="app.diagrams.net" modified="2022-05-02T12:03:29.313Z" agent="5.0 (Windows NT 10.0; Win64; x64) AppleWebKit/537.36 (KHTML, like Gecko) Chrome/101.0.4951.41 Safari/537.36 Edg/101.0.1210.32" etag="6yCCnnngonGP-801Sjad" version="17.5.0" type="github">
  <diagram id="qrlVmic5sU8k79fSdVvG" name="Page-1">
    <mxGraphModel dx="1038" dy="579" grid="1" gridSize="10" guides="1" tooltips="1" connect="1" arrows="1" fold="1" page="1" pageScale="1" pageWidth="850" pageHeight="1100" math="0" shadow="0">
      <root>
        <mxCell id="0" />
        <mxCell id="1" parent="0" />
        <mxCell id="AOekV6RIUE929z9dBSZj-3" value="" style="edgeStyle=orthogonalEdgeStyle;rounded=0;orthogonalLoop=1;jettySize=auto;html=1;" edge="1" parent="1" source="AOekV6RIUE929z9dBSZj-1" target="AOekV6RIUE929z9dBSZj-2">
          <mxGeometry relative="1" as="geometry" />
        </mxCell>
        <mxCell id="AOekV6RIUE929z9dBSZj-1" value="start" style="rounded=1;whiteSpace=wrap;html=1;" vertex="1" parent="1">
          <mxGeometry x="80" y="30" width="90" height="30" as="geometry" />
        </mxCell>
        <mxCell id="AOekV6RIUE929z9dBSZj-5" value="" style="edgeStyle=orthogonalEdgeStyle;rounded=0;orthogonalLoop=1;jettySize=auto;html=1;" edge="1" parent="1" source="AOekV6RIUE929z9dBSZj-2" target="AOekV6RIUE929z9dBSZj-4">
          <mxGeometry relative="1" as="geometry" />
        </mxCell>
        <mxCell id="AOekV6RIUE929z9dBSZj-2" value="TIMEOUT of given time" style="rhombus;whiteSpace=wrap;html=1;" vertex="1" parent="1">
          <mxGeometry x="85" y="100" width="80" height="80" as="geometry" />
        </mxCell>
        <mxCell id="AOekV6RIUE929z9dBSZj-8" style="edgeStyle=orthogonalEdgeStyle;rounded=0;orthogonalLoop=1;jettySize=auto;html=1;entryX=0;entryY=0.5;entryDx=0;entryDy=0;" edge="1" parent="1" source="AOekV6RIUE929z9dBSZj-4" target="AOekV6RIUE929z9dBSZj-6">
          <mxGeometry relative="1" as="geometry" />
        </mxCell>
        <mxCell id="AOekV6RIUE929z9dBSZj-4" value="IF pop id not in waiting for rest array&amp;nbsp;" style="rhombus;whiteSpace=wrap;html=1;" vertex="1" parent="1">
          <mxGeometry x="85" y="240" width="80" height="80" as="geometry" />
        </mxCell>
        <mxCell id="AOekV6RIUE929z9dBSZj-10" value="" style="edgeStyle=orthogonalEdgeStyle;rounded=0;orthogonalLoop=1;jettySize=auto;html=1;" edge="1" parent="1" source="AOekV6RIUE929z9dBSZj-6" target="AOekV6RIUE929z9dBSZj-9">
          <mxGeometry relative="1" as="geometry" />
        </mxCell>
        <mxCell id="AOekV6RIUE929z9dBSZj-6" value="store the pop id into array" style="shape=dataStorage;whiteSpace=wrap;html=1;fixedSize=1;" vertex="1" parent="1">
          <mxGeometry x="240" y="110" width="100" height="80" as="geometry" />
        </mxCell>
        <mxCell id="AOekV6RIUE929z9dBSZj-9" value="end" style="ellipse;whiteSpace=wrap;html=1;" vertex="1" parent="1">
          <mxGeometry x="245" y="230" width="90" height="40" as="geometry" />
        </mxCell>
      </root>
    </mxGraphModel>
  </diagram>
</mxfile>
